HIERARCHY
ROOT Hips
{
    OFFSET 0.0 0.0 0.0
    CHANNELS 6 Xposition Yposition Zposition Zrotation Xrotation Yrotation
    JOINT LeftHipJoint
    {
        OFFSET 0.1 0.0 0.0
        CHANNELS 3 Zrotation Xrotation Yrotation
        JOINT LeftUpLeg
        {
            OFFSET 125.83464382207663 0.0 0.0
            CHANNELS 3 Zrotation Xrotation Yrotation
            JOINT LeftLeg
            {
                OFFSET 0.0 0.0 -414.82607048099214
                CHANNELS 3 Zrotation Xrotation Yrotation
                JOINT LeftFoot
                {
                    OFFSET 0.0 0.0 -392.7967947696058
                    CHANNELS 3 Zrotation Xrotation Yrotation
                    End Site
                    {
                        OFFSET 0.0 -0.1 0.0
                    }
                }
            }
        }
    }
    JOINT LowerBack
    {
        OFFSET 0.0 0.0 0.1
        CHANNELS 3 Zrotation Xrotation Yrotation
        JOINT Spine
        {
            OFFSET 0.0 0.0 217.9672779590923
            CHANNELS 3 Zrotation Xrotation Yrotation
            JOINT Spine1
            {
                OFFSET 0.0 0.0 251.1903602628209
                CHANNELS 3 Zrotation Xrotation Yrotation
                JOINT LeftShoulder
                {
                    OFFSET 0.1 0.0 0.0
                    CHANNELS 3 Zrotation Xrotation Yrotation
                    JOINT LeftArm
                    {
                        OFFSET 141.0918893818435 0.0 0.0
                        CHANNELS 3 Zrotation Xrotation Yrotation
                        JOINT LeftForeArm
                        {
                            OFFSET 263.0128406815156 0.0 0.0
                            CHANNELS 3 Zrotation Xrotation Yrotation
                            JOINT LeftHand
                            {
                                OFFSET 240.57273691128364 0.0 0.0
                                CHANNELS 3 Zrotation Xrotation Yrotation
                                End Site
                                {
                                    OFFSET 0.1 0.0 0.0
                                }
                            }
                        }
                    }
                }
                JOINT Neck
                {
                    OFFSET 0.0 0.0 0.1
                    CHANNELS 3 Zrotation Xrotation Yrotation
                    JOINT Neck1
                    {
                        OFFSET 0.0 0.0 104.12248585209807
                        CHANNELS 3 Zrotation Xrotation Yrotation
                        End Site
                        {
                            OFFSET 0.0 0.0 115.43583001579037
                        }
                    }
                }
                JOINT RightShoulder
                {
                    OFFSET -0.1 0.0 0.0
                    CHANNELS 3 Zrotation Xrotation Yrotation
                    JOINT RightArm
                    {
                        OFFSET -141.0918893818435 0.0 0.0
                        CHANNELS 3 Zrotation Xrotation Yrotation
                        JOINT RightForeArm
                        {
                            OFFSET -263.0128406815156 0.0 0.0
                            CHANNELS 3 Zrotation Xrotation Yrotation
                            JOINT RightHand
                            {
                                OFFSET -240.57273691128364 0.0 0.0
                                CHANNELS 3 Zrotation Xrotation Yrotation
                                End Site
                                {
                                    OFFSET -0.1 0.0 0.0
                                }
                            }
                        }
                    }
                }
            }
        }
    }
    JOINT RightHipJoint
    {
        OFFSET -0.1 0.0 0.0
        CHANNELS 3 Zrotation Xrotation Yrotation
        JOINT RightUpLeg
        {
            OFFSET -125.83464382207663 0.0 0.0
            CHANNELS 3 Zrotation Xrotation Yrotation
            JOINT RightLeg
            {
                OFFSET 0.0 0.0 -414.82607048099214
                CHANNELS 3 Zrotation Xrotation Yrotation
                JOINT RightFoot
                {
                    OFFSET 0.0 0.0 -392.7967947696058
                    CHANNELS 3 Zrotation Xrotation Yrotation
                    End Site
                    {
                        OFFSET 0.0 -0.1 0.0
                    }
                }
            }
        }
    }
}
MOTION
Frames: 9
Frame Time: 0.03333333333333333
0.0 0.0 820.231486751202 26.205092849520078 -2.1312742029639815 2.3359539460107013 -3.1805546814635168e-15 0.0 0.0 0.013522578737110371 -14.39850384304355 4.921825996408388 2.448094457231532 26.611011952924986 -1.991136465652027 0.0 0.0 -7.951386703658791e-16 -3.1805546814635168e-15 0.0 0.0 -0.004995693661393944 6.344967440105409 1.3177226226207355 1.1586398856512543 -3.935292418490615e-16 4.0156878410219085e-16 0.0 0.0 -2.981770013872047e-16 -35.35093413020856 21.15584226413133 85.07701328925228 -24.3357054559048 1.7033393671155341e-15 3.4175717932564234e-15 2.1724695060715624e-32 -7.951386703658794e-16 3.13085851456565e-15 0.0 0.0 -2.981770013872047e-16 -3.1939481790423536 7.359526924825967 -3.040045916448319 0.0 0.0 -2.981770013872047e-16 17.280023639858594 16.27804996179427 -82.82845583343205 36.34934111308017 3.021876924158528e-15 -9.920624662881307e-16 0.0 0.0 -1.5902773407317584e-15 -3.1805546814635168e-15 0.0 0.0 0.007467945443805668 -11.752336854288757 -3.4860445954739 -1.9546243314597658 28.94118269161746 0.8256462257157036 0.0 -9.939233379573489e-17 0.0
0.0 0.0 820.231486751202 26.167175712882184 -1.7152552149484495 2.3683744656771384 -3.0173187584327256e-34 3.4787316828507215e-16 9.93923337957349e-17 -0.012663099646246288 -14.777415633565473 4.991832238991626 2.511582975071597 26.390659551052984 -2.1136312097275685 1.3793457181406746e-33 -1.987846675914698e-16 7.951386703658792e-16 -3.0173187584327256e-34 3.4787316828507215e-16 9.93923337957349e-17 0.006125008588020178 6.292531410714769 1.327677136660888 1.2573308330131852 -8.09267811159679e-16 -1.283298251329889e-15 0.0 0.0 0.0 -35.66177190538588 21.073320744750465 85.00454256874792 -24.48507714769203 2.4738894113381475e-16 6.359404561984723e-15 -7.951386703658792e-16 7.951386703658792e-16 -1.4908850069360235e-16 0.0 0.0 0.0 -3.3921145380148228 6.965759711819134 -3.153248271322826 0.0 0.0 0.0 17.704809610454706 15.821767802835236 -82.50320305321313 37.124428531141206 -1.0348197020124585e-15 -1.3072869829328918e-14 0.0 0.0 -3.1805546814635168e-15 -3.0173187584327256e-34 3.4787316828507215e-16 9.93923337957349e-17 -0.013857462803451952 -12.169322863080666 -3.4399772685065133 -1.8666869739016314 28.87249229802673 0.8123608669776814 0.0 0.0 0.0
0.0 0.0 820.231486751202 26.210603126415137 -1.2972751316759719 2.4774467035633707 0.0 0.0 0.0 -0.040526527932250984 -15.181911115002267 4.920385661156508 2.498445592397942 26.120291970127298 -2.144444754698048 -5.517382872562698e-33 -1.5902773407317584e-15 -3.975693351829396e-16 0.0 0.0 0.0 0.01715816616709378 6.24511518949466 1.3483158526835364 1.4264556428199664 -1.7402484440425417e-16 1.9901671046785596e-15 -1.7241821476758432e-33 -9.939233379573488e-16 -1.9878466759146977e-16 -36.15013321850898 21.225288749290307 85.0250753229207 -24.847201766547762 2.9936241229441866e-16 -1.3589091233442995e-15 0.0 0.0 1.2921003393445538e-15 -1.7241821476758432e-33 -9.939233379573488e-16 -1.9878466759146977e-16 -3.756969783300341 6.462909589316834 -3.3186014703027595 -1.7241821476758432e-33 -9.939233379573488e-16 -1.9878466759146977e-16 18.555180233061897 15.31054619355265 -82.35027954256414 37.844828542912474 5.071501237469044e-15 4.985931769212995e-15 0.0 0.0 0.0 0.0 0.0 0.0 -0.03708173767190399 -12.643185068536782 -3.5078045397597233 -1.8517382366167445 28.93846482019757 0.8359818928497759 0.0 0.0 0.0
0.0 0.0 820.231486751202 26.282791621499232 -1.0805530740628306 2.586657770066385 8.620910738379216e-35 -9.93923337957349e-17 9.93923337957349e-17 -0.0678866227185588 -15.451279828480345 4.956679422115926 2.5633210392607384 26.097030148797803 -2.2538682566660793 0.0 0.0 3.975693351829396e-16 8.620910738379216e-35 -9.93923337957349e-17 9.93923337957349e-17 0.027615922798866217 6.2256579964303596 1.3982125739969726 1.5388530142417332 -3.841864660690357e-16 9.991725262953681e-16 -1.7241821476758432e-33 -9.93923337957349e-16 -1.987846675914698e-16 -36.531492646448335 21.452415243267623 85.00650282529695 -25.42304542183829 -6.181822776389095e-15 -8.730492745913458e-15 0.0 0.0 5.963540027744094e-16 -1.7241821476758432e-33 -9.93923337957349e-16 -1.987846675914698e-16 -4.152639785162738 6.077270792005206 -3.562825845754495 -1.7241821476758432e-33 -9.93923337957349e-16 -1.987846675914698e-16 19.215736392056613 15.06533891409263 -82.15756805620627 39.20164207287137 -1.9292849562816477e-15 4.063214948907368e-15 0.0 0.0 1.5902773407317584e-15 8.620910738379216e-35 -9.93923337957349e-17 9.93923337957349e-17 -0.06046158819483627 -13.00793276721144 -3.523411974051423 -1.8137890586672383 29.051525121398004 0.8377825047290421 -1.1034765745125397e-32 -1.5902773407317584e-15 -7.951386703658792e-16
0.0 0.0 820.231486751202 26.45091068301147 -0.698713304812653 2.839887466513486 0.0 9.939233379573489e-17 0.0 -0.11528548949052761 -15.786594034990838 4.701594329368729 2.498224957431459 25.89676447417166 -2.1896922662653067 0.0 0.0 -7.951386703658792e-16 0.0 9.939233379573489e-17 0.0 0.04454879569543256 6.1286754708693465 1.336088182218771 1.5587499177681978 1.173670245657479e-15 -1.407587439685954e-15 0.0 0.0 0.0 -36.65124447121097 21.699762295336843 84.92136238680874 -25.844402275280327 -8.561941365669331e-15 1.5983141828460196e-14 7.951386703658792e-16 -8.965747167914385e-33 -1.2921003393445538e-15 0.0 0.0 0.0 -4.560133727169888 5.796462071928469 -3.7837980346194144 0.0 0.0 0.0 19.7542003021239 14.998564038865927 -82.067649627761 40.13468300702085 1.6096232021967391e-15 -1.4132504193614797e-14 6.3611093629270335e-15 8.827812596100317e-32 1.5902773407317584e-15 0.0 9.939233379573489e-17 0.0 -0.10152954268402976 -13.501882705975422 -3.7384203680244967 -1.8372626320556367 29.007155123907584 0.9318493741643168 0.0 0.0 0.0
0.0 0.0 820.231486751202 26.63905028669812 -0.36408750593665556 3.0058364696799384 0.0 0.0 -9.93923337957349e-17 -0.14356025709226833 -16.102645797809714 4.571456147143762 2.439673727948606 25.528540565811657 -2.0658130153653453 0.0 0.0 5.963540027744094e-16 0.0 0.0 -9.93923337957349e-17 0.0535694805873152 6.069168187330733 1.3755025493469426 1.604794162675635 4.086654815800328e-16 7.894931320499137e-16 0.0 -7.951386703658792e-16 0.0 -36.71671560303606 21.96427192230608 84.78252171305837 -26.222763506319904 4.879751803588709e-15 3.585841830285241e-15 0.0 0.0 -2.9817700138720468e-15 0.0 -7.951386703658792e-16 0.0 -4.945099012073217 5.540255371528003 -4.008604753960661 0.0 -7.951386703658792e-16 0.0 19.934882180244283 14.97443605187753 -81.91101523195195 41.29035931893193 3.018580535181753e-15 2.6053239359312445e-14 0.0 0.0 3.1805546814635168e-15 0.0 0.0 -9.93923337957349e-17 -0.12684972894408145 -13.940177605007449 -3.7525992653348648 -1.7888542165439325 28.941530126657874 0.839744765556363 0.0 0.0 0.0
0.0 0.0 820.231486751202 26.776378098952915 -0.10726559850753294 3.2109356690261994 0.0 0.0 1.2424041724466862e-16 -0.17175752160825883 -16.289501069479076 4.311743578989466 2.335152919561929 25.29447985948652 -1.875278334575566 0.0 0.0 5.963540027744094e-16 0.0 0.0 1.2424041724466862e-16 0.06135663982521726 5.900314780956809 1.42273935569277 1.6663144101523661 0.0 0.0 0.0 0.0 1.987846675914698e-16 -37.17214405163771 22.415976660414646 84.79508848105255 -26.689856543808805 -4.904650664648823e-15 -6.883904701209012e-15 1.5902773407317582e-15 1.3793457181406746e-32 9.939233379573488e-16 0.0 0.0 1.987846675914698e-16 -5.326202240006339 5.346379617457247 -4.308732858973141 0.0 0.0 1.987846675914698e-16 20.27726800804811 14.932201381288566 -81.92086876308566 42.16729143871171 3.4324275287844435e-15 8.902909299530022e-15 -6.3611093629270335e-15 1.7655625192200634e-31 -3.1805546814635168e-15 0.0 0.0 1.2424041724466862e-16 -0.15224866345905172 -14.234078825361362 -3.8728059421129486 -1.7955378506081046 28.831154340014734 0.8208152368721965 0.0 0.0 0.0
0.0 0.0 820.231486751202 26.900787009483086 0.23077693332250532 3.450028169615198 0.0 0.0 -1.7393658414253607e-16 -0.21316335685817833 -16.67800379135138 3.9970291347881193 2.2728499568019145 25.54535951712855 -1.7687915989092045 -6.896728590703373e-34 3.975693351829396e-16 1.987846675914698e-16 0.0 0.0 -1.7393658414253607e-16 0.07118331212773295 5.6668661639053495 1.349882452161243 1.65592963369925 2.2461623284840617e-16 1.786002732818733e-15 0.0 0.0 -1.987846675914698e-16 -37.80010492810558 22.90497086392547 84.82777139220204 -27.19902918834835 -3.4588347339768247e-15 1.429763918999742e-14 -7.951386703658792e-16 6.896728590703373e-34 -9.93923337957349e-17 0.0 0.0 -1.987846675914698e-16 -5.679190879978963 5.0491385908423165 -4.527600473628256 0.0 0.0 -1.987846675914698e-16 20.522238930973554 15.068330379637308 -81.79425807193198 43.52229296051352 1.5948654033874186e-14 -2.9418641426917797e-15 0.0 0.0 3.1805546814635168e-15 0.0 0.0 -1.7393658414253607e-16 -0.19051925890855115 -14.748913120057209 -4.077386020288209 -1.8585645197943363 29.112551683935877 0.8660329569708608 0.0 0.0 3.9756933518293955e-16
0.0 0.0 820.231486751202 26.99086513935159 0.47354217347756766 3.6404620117607487 0.0 0.0 1.2424041724466862e-16 -0.2655960639142507 -16.834773300456074 3.826601782944519 2.2450808975234624 25.255180895148353 -1.8296573689530102 -8.276074308844047e-33 -7.951386703658792e-16 -1.1927080055488188e-15 0.0 0.0 1.2424041724466862e-16 0.08442612181311604 5.458698865366598 1.3231528252973852 1.7014534075134362 1.9581131298530043e-16 -2.0171419842409458e-16 0.0 0.0 0.0 -38.24592372834094 23.5915036266728 84.99135098595137 -27.631377521604563 -3.33549568703621e-15 1.0233936551170992e-14 7.951386703658792e-16 -4.138037154422024e-33 -5.963540027744094e-16 0.0 0.0 0.0 -5.976874276738502 4.95748007605342 -4.769321547860606 0.0 0.0 0.0 20.27811600069214 15.170408174982164 -81.61413659735663 44.688893055965615 0.0 0.0 0.0 0.0 -3.1805546814635176e-15 0.0 0.0 1.2424041724466862e-16 -0.23946144334318614 -15.065899396419377 -4.159135573437831 -1.7967849608366602 28.967945559304766 0.8067899068005897 0.0 0.0 -3.975693351829396e-16
